<svg xmlns="http://www.w3.org/2000/svg" viewBox="0 0 800 400" fill="none">
  
  <defs>
    <radialGradient id="glow1" cx="50%" cy="50%" r="50%">
      <stop offset="0%" stop-color="#4F6EF7" stop-opacity="0.15"></stop>
      <stop offset="100%" stop-color="#4F6EF7" stop-opacity="0"></stop>
    </radialGradient>
    <radialGradient id="glow2" cx="50%" cy="50%" r="50%">
      <stop offset="0%" stop-color="#00D4AA" stop-opacity="0.12"></stop>
      <stop offset="100%" stop-color="#00D4AA" stop-opacity="0"></stop>
    </radialGradient>
  </defs>
  
  <circle cx="400" cy="200" r="280" fill="url(#glow1)"></circle>
  <circle cx="620" cy="120" r="150" fill="url(#glow2)"></circle>

  
  <circle cx="400" cy="200" r="32" fill="#1A1D26" stroke="#4F6EF7" stroke-width="2"></circle>
  <rect x="390" y="190" width="5" height="20" rx="2.5" fill="#4F6EF7"></rect>
  <path d="M395 190 L404 210" stroke="#4F6EF7" stroke-width="5" stroke-linecap="round"></path>
  <rect x="404" y="190" width="5" height="20" rx="2.5" fill="#4F6EF7"></rect>
  <circle cx="399.5" cy="200" r="2.5" fill="#00D4AA"></circle>

  
  <line x1="400" y1="168" x2="400" y2="100" stroke="#4F6EF7" stroke-width="1.5" stroke-dasharray="4 3" opacity="0.6"></line>
  <line x1="424" y1="216" x2="510" y2="270" stroke="#4F6EF7" stroke-width="1.5" stroke-dasharray="4 3" opacity="0.6"></line>
  <line x1="376" y1="216" x2="290" y2="270" stroke="#00D4AA" stroke-width="1.5" stroke-dasharray="4 3" opacity="0.6"></line>
  <line x1="432" y1="186" x2="540" y2="120" stroke="#00D4AA" stroke-width="1.5" stroke-dasharray="4 3" opacity="0.5"></line>
  <line x1="368" y1="186" x2="260" y2="120" stroke="#4F6EF7" stroke-width="1.5" stroke-dasharray="4 3" opacity="0.5"></line>
  <line x1="400" y1="232" x2="400" y2="310" stroke="#4F6EF7" stroke-width="1.5" stroke-dasharray="4 3" opacity="0.4"></line>

  
  
  <circle cx="400" cy="88" r="20" fill="#111318" stroke="#4F6EF7" stroke-width="1.5"></circle>
  <rect x="394" y="80" width="12" height="16" rx="2" fill="none" stroke="#4F6EF7" stroke-width="1.5"></rect>
  <line x1="397" y1="85" x2="403" y2="85" stroke="#4F6EF7" stroke-width="1"></line>
  <line x1="397" y1="89" x2="403" y2="89" stroke="#4F6EF7" stroke-width="1"></line>

  
  <circle cx="520" cy="278" r="20" fill="#111318" stroke="#4F6EF7" stroke-width="1.5"></circle>
  <path d="M512 278 Q516 271 520 278 Q524 285 528 278" stroke="#4F6EF7" stroke-width="1.5" fill="none"></path>

  
  <circle cx="280" cy="278" r="20" fill="#111318" stroke="#00D4AA" stroke-width="1.5"></circle>
  <circle cx="280" cy="278" r="8" fill="none" stroke="#00D4AA" stroke-width="1.5"></circle>
  <circle cx="280" cy="278" r="3" fill="#00D4AA"></circle>

  
  <circle cx="548" cy="112" r="20" fill="#111318" stroke="#00D4AA" stroke-width="1.5"></circle>
  <path d="M540 108 L548 116 L556 108" stroke="#00D4AA" stroke-width="1.5" fill="none" stroke-linecap="round"></path>

  
  <circle cx="252" cy="112" r="20" fill="#111318" stroke="#4F6EF7" stroke-width="1.5"></circle>
  <rect x="245" y="105" width="14" height="14" rx="3" fill="none" stroke="#4F6EF7" stroke-width="1.5"></rect>
  <circle cx="252" cy="112" r="3" fill="#4F6EF7"></circle>

  
  <circle cx="400" cy="320" r="20" fill="#111318" stroke="#4F6EF7" stroke-width="1.5"></circle>
  <path d="M393 316 L400 322 L407 316" stroke="#4F6EF7" stroke-width="1.5" fill="none" stroke-linecap="round" stroke-linejoin="round"></path>
  <line x1="400" y1="322" x2="400" y2="328" stroke="#4F6EF7" stroke-width="1.5"></line>

  
  <circle cx="400" cy="130" r="4" fill="#4F6EF7" opacity="0.9"></circle>
  <circle cx="472" cy="248" r="4" fill="#4F6EF7" opacity="0.9"></circle>
  <circle cx="328" cy="248" r="4" fill="#00D4AA" opacity="0.9"></circle>
</svg>